<svg width="90" height="24" viewBox="0 0 90 24" fill="none" xmlns="http://www.w3.org/2000/svg">
<g clip-path="url(#clip0_1317_472969)">
<path d="M12.33 20.568L11.4146 24H14.8323L15.7477 20.568H12.33ZM4.204 15.8064L3.07592 20.0088H7.25841L8.37932 15.8064H4.204ZM0.740898 12.4176L0 15.1968H2.76761L3.50851 12.4176H0.740898ZM7.1174 9.924L6.09926 13.74H9.89696L10.9151 9.924H7.1174ZM15.0044 5.184L13.9528 9.12H17.8772L18.9311 5.184H15.0044ZM20.5922 8.0376H22.6069L22.0668 10.0608H20.052L20.5922 8.0376ZM38.4431 0C30.9193 1.2144 19.0984 4.8648 15.609 12.528H11.711L10.6594 16.4712H14.579L15.6306 12.528H19.5549L18.5033 16.4712H14.7152C14.7086 17.3687 14.8921 18.2574 15.2535 19.0783C15.6148 19.8992 16.1458 20.6336 16.8112 21.2328C19.1415 23.328 23.4411 24.5184 30.3003 23.3544C30.384 23.3544 30.3816 23.2656 30.3003 23.2656C26.5624 23.3904 23.4841 22.5456 21.7203 20.7936L21.5338 21.4968H18.25L19.1199 18.2088H20.2528C19.0913 13.2 24.93 6.0984 34.098 1.8072C35.5155 1.14257 36.9731 0.567843 38.4622 0.0864C38.5434 0.06 38.5315 0 38.4622 0H38.4454" fill="white"/>
<path fill-rule="evenodd" clip-rule="evenodd" d="M46.1028 1.68004C48.5096 2.56084 49.1118 4.95844 46.6191 8.35204C46.5713 8.41444 46.5068 8.39284 46.5283 8.32564C47.2285 6.43204 46.5689 4.24564 44.057 3.54244C39.9534 2.40004 33.1395 4.63204 28.1851 8.07364C28.1158 8.11924 28.0584 8.07364 28.1158 8.02084C34.803 1.94404 43.0413 0.554439 46.1028 1.68004Z" fill="white"/>
<path fill-rule="evenodd" clip-rule="evenodd" d="M29.8842 10.0728L27.2242 19.5816H24.3896L27.0473 10.0728H29.8842Z" fill="white"/>
<path fill-rule="evenodd" clip-rule="evenodd" d="M32.5038 13.1736L30.7926 19.5816H28.1636L29.8748 13.1736H32.5038ZM33.5267 13.1736H33.2208L31.512 19.5816H34.141L35.2308 15.5016L35.3431 14.8896C35.3568 14.7104 35.352 14.5302 35.3288 14.352L35.2284 14.0448L35.0611 13.7136C34.9998 13.5965 34.9133 13.4946 34.8079 13.4153C34.7025 13.3361 34.5808 13.2813 34.4516 13.2552C34.1762 13.2069 33.8971 13.1837 33.6175 13.1856H33.5674L33.5267 13.1736Z" fill="white"/>
<path fill-rule="evenodd" clip-rule="evenodd" d="M41.108 10.4304L41.0053 10.6272L40.9909 10.6872V10.7376V10.86L41.0268 10.9584L43.5219 15.9672L43.5578 16.0656L43.5984 16.1376C43.6663 16.3185 43.6987 16.5108 43.694 16.704C43.6832 16.9356 43.6455 17.1652 43.5817 17.388C43.4164 18.0078 43.0507 18.5549 42.542 18.9432C42.0406 19.3559 41.4122 19.5815 40.7639 19.5816H40.5416C40.6073 19.5413 40.6635 19.4873 40.7065 19.4232L40.7949 19.2264V19.1784V19.116V19.008L40.7639 18.8952L38.2759 13.8552L38.2305 13.7904L38.2042 13.7064C38.1354 13.5392 38.1028 13.3592 38.1086 13.1784C38.1103 13.0596 38.1191 12.941 38.1349 12.8232C38.1468 12.7512 38.1755 12.6288 38.2209 12.4584C38.3906 11.8419 38.7535 11.2966 39.2558 10.9032C39.755 10.4803 40.388 10.2497 41.0411 10.2528L41.2801 10.2384L41.108 10.4304ZM40.1066 19.5816L37.6736 14.6088L36.3472 19.5816H40.1066ZM45.0491 10.2456H41.7175L43.8685 14.6592L45.0491 10.2456ZM47.745 13.1736L48.6365 17.9736L47.5825 21.9192H44.9846L45.8641 18.624L44.8412 13.1712L47.745 13.1736ZM48.462 13.1736L49.234 17.1696L52.102 13.1736H48.462ZM55.5747 13.1736L53.8634 19.5816H51.2344L52.9457 13.1736H55.5747ZM56.5976 13.1736H56.2941L54.5852 19.5816H57.2142L58.304 15.5016L58.4116 14.88C58.4241 14.7008 58.4193 14.5207 58.3973 14.3424L58.2969 14.0352L58.1272 13.704C58.0667 13.5868 57.9807 13.4847 57.8756 13.4054C57.7706 13.3261 57.6491 13.2714 57.5201 13.2456C57.2439 13.1973 56.964 13.174 56.6836 13.176H56.643L56.5976 13.1736ZM59.8145 14.16C60.4826 13.6214 61.2888 13.2836 62.14 13.1856L60.6199 18.8832L60.8183 18.9576L61.0286 18.9936L61.1362 19.008H61.3561L61.4684 18.9936C61.6488 18.9922 61.8282 18.9655 62.0014 18.9144C62.2013 18.8551 62.3943 18.7746 62.5773 18.6744C62.9507 18.4917 63.2914 18.2484 63.5859 17.9544L64.1643 17.388L63.9253 18.2832C63.5381 18.6618 63.0916 18.9739 62.6036 19.2072C62.0863 19.4755 61.5129 19.6161 60.9306 19.6176H60.8064C60.4271 19.6353 60.0495 19.5566 59.7086 19.3888C59.3677 19.221 59.0745 18.9695 58.8561 18.6576C58.3973 18.0216 58.2897 17.256 58.5263 16.368C58.7252 15.5188 59.1741 14.7494 59.8145 14.16ZM64.6088 14.244L64.487 14.004C64.3302 13.7412 64.1066 13.5251 63.8393 13.3776C63.5381 13.2199 63.2012 13.1438 62.8618 13.1568L62.0826 16.08H64.5587L64.6327 15.7992C64.659 15.7008 64.6829 15.6024 64.7068 15.4992C64.7359 15.352 64.7535 15.2028 64.7594 15.0528C64.7719 14.8575 64.7492 14.6616 64.6925 14.4744L64.6088 14.244ZM68.6718 13.1664L66.9606 19.5744H64.3316L66.0405 13.1664H68.6718ZM70.9328 13.56C70.8013 13.2888 70.5313 13.164 70.1202 13.1784C69.7465 13.1684 69.3838 13.3054 69.1092 13.56C68.859 13.7833 68.6795 14.0753 68.593 14.4V14.436C68.5108 14.7144 68.54 15.014 68.6742 15.2712C68.8081 15.5304 69.0781 15.66 69.4844 15.66C69.8624 15.6684 70.2287 15.528 70.505 15.2688C70.7521 15.0499 70.9326 14.7654 71.026 14.448V14.412C71.0683 14.2722 71.0818 14.1252 71.0658 13.98C71.0498 13.8348 71.0045 13.6943 70.9328 13.5672V13.56ZM70.0413 21.5232C69.9046 21.2624 69.8754 20.9582 69.96 20.676C70.0566 20.3492 70.2371 20.0537 70.4835 19.8192C70.7711 19.5628 71.1458 19.427 71.5303 19.44C71.939 19.44 72.209 19.5672 72.3453 19.8192C72.481 20.0795 72.5094 20.3829 72.4241 20.664C72.3293 20.9934 72.1467 21.2905 71.8959 21.5232C71.7596 21.6538 71.5987 21.7556 71.4226 21.8228C71.2466 21.89 71.0589 21.9211 70.8706 21.9144C70.4643 21.9144 70.1919 21.7848 70.0485 21.5232H70.0413ZM77.6893 13.1664H75.0603L73.0766 20.6064C73.0011 20.8861 72.8711 21.1479 72.6942 21.3768C72.5144 21.6129 72.2775 21.7988 72.0059 21.9168H73.177C73.748 21.9091 74.3066 21.7484 74.795 21.4512C75.0484 21.3197 75.2722 21.1372 75.4523 20.9151C75.6324 20.6929 75.765 20.4359 75.8418 20.16L77.6893 13.1664ZM72.8089 19.008H72.2353C71.5422 19.008 71.0857 18.708 70.8635 18.1128C70.6389 17.4642 70.6255 16.7607 70.8252 16.104C71.0187 15.3333 71.4017 14.6236 71.939 14.04C72.1681 13.7738 72.4513 13.5599 72.7695 13.4125C73.0877 13.2652 73.4336 13.1878 73.784 13.1856H74.36L72.8089 19.008ZM78.7361 14.16C79.4027 13.6192 80.2081 13.2789 81.0592 13.1784L79.5391 18.8832L79.7375 18.9576L79.9478 18.9936L80.0554 19.008H80.2753L80.3876 18.9936C80.5681 18.9923 80.7474 18.9657 80.9206 18.9144C81.1211 18.8547 81.3149 18.7742 81.4989 18.6744C81.8715 18.4917 82.2115 18.2484 82.5051 17.9544L83.0835 17.388L82.8445 18.2832C82.4573 18.6618 82.0108 18.9739 81.5228 19.2072C81.0055 19.4755 80.432 19.6161 79.8498 19.6176H79.7279C79.3483 19.6357 78.9703 19.5572 78.6289 19.3894C78.2875 19.2215 77.9939 18.9698 77.7753 18.6576C77.3164 18.0216 77.2089 17.256 77.4479 16.368C77.6465 15.5187 78.0954 14.7492 78.7361 14.16ZM83.5304 14.244L83.4109 14.004C83.2527 13.7416 83.0285 13.5256 82.7608 13.3776C82.4598 13.2197 82.1228 13.1436 81.7833 13.1568L81.0042 16.08H83.4802L83.5567 15.7992C83.583 15.7008 83.6069 15.6024 83.6284 15.4992C83.6575 15.352 83.6751 15.2028 83.681 15.0528C83.6932 14.8577 83.6713 14.662 83.6165 14.4744L83.5304 14.244ZM87.5934 13.1664L85.8822 19.5744H83.2532L84.9644 13.1664H87.5934ZM89.8639 13.5672C89.7325 13.296 89.4624 13.1712 89.0537 13.1856C88.6792 13.175 88.3155 13.312 88.0403 13.5672C87.7861 13.7866 87.6016 14.0762 87.5098 14.4V14.436C87.4289 14.7145 87.458 15.0137 87.591 15.2712C87.7249 15.5304 87.9949 15.66 88.4036 15.66C88.7824 15.6735 89.1514 15.5374 89.4313 15.2808C89.679 15.0619 89.8604 14.7775 89.9547 14.46V14.424C89.997 14.2842 90.0106 14.1372 89.9946 13.992C89.9786 13.8468 89.9333 13.7063 89.8615 13.5792L89.8639 13.5672Z" fill="white"/>
</g>
<defs>
<clipPath id="clip0_1317_472969">
<rect width="90" height="24" fill="white"/>
</clipPath>
</defs>
</svg>
