<svg width="200" height="26" viewBox="0 0 200 26" fill="none" xmlns="http://www.w3.org/2000/svg">
<path d="M0 1.10855e-05H7.16903V22.0148H0V1.10855e-05ZM11.9117 1.10855e-05H17.5172L26.4499 11.622V1.10855e-05H32.4048V22.0148H27.1496L17.8645 9.91639V21.9748H11.9117V1.10855e-05ZM74.0866 1.10855e-05H79.8783L89.1243 22.1696H82.66L81.0935 18.243H72.7133L71.1457 22.1696H64.7995L74.0866 1.10855e-05ZM79.3748 13.4865L76.9464 7.2191L74.473 13.4865H79.3698H79.3748ZM89.1303 11.5042V11.4243C89.0976 9.91621 89.371 8.41709 89.9341 7.01713C90.4972 5.61717 91.3383 4.34531 92.4068 3.27806C93.4754 2.21081 94.7493 1.37023 96.1519 0.806892C97.5545 0.243549 99.0569 -0.0309154 100.569 1.10855e-05C102.369 -0.0774692 104.16 0.304445 105.771 1.10965C107.383 1.91485 108.761 3.11674 109.778 4.60169L105.233 8.17179C104.714 7.38825 104.011 6.74352 103.184 6.29402C102.358 5.84451 101.434 5.60393 100.492 5.59333C97.4375 5.59333 95.3214 8.21073 95.3214 11.4243V11.5042C95.3214 14.7997 97.4765 17.3741 100.492 17.3741C102.765 17.3741 104.096 16.3026 105.39 14.7158L109.935 17.9693C108.9 19.5614 107.467 20.8564 105.776 21.7261C104.086 22.5957 102.197 23.0098 100.297 22.9275C98.806 22.9302 97.3294 22.6344 95.9547 22.0576C94.58 21.4809 93.3353 20.6348 92.2942 19.5696C91.2531 18.5044 90.4368 17.2417 89.8935 15.8562C89.3502 14.4706 89.091 12.9904 89.1313 11.5032L89.1303 11.5042ZM117.847 5.35466H111.341V1.10855e-05H130.42V5.35466H123.913V22.0148H117.881V5.35466H117.847ZM131.325 11.5042V11.4243C131.417 8.39005 132.688 5.51051 134.87 3.39484C137.053 1.27917 139.974 0.0933094 143.017 0.0881202C146.06 0.082931 148.985 1.25882 151.174 3.36704C153.364 5.47525 154.645 8.35044 154.748 11.3844V11.4643C154.655 14.4985 153.384 17.378 151.202 19.4936C149.019 21.6091 146.098 22.7949 143.055 22.7999C140.012 22.805 137.087 21.629 134.898 19.5207C132.708 17.4124 131.427 14.5371 131.325 11.5032V11.5042ZM148.602 11.5042V11.4243C148.636 10.6637 148.518 9.90379 148.253 9.18966C147.988 8.47554 147.582 7.82168 147.06 7.26681C146.537 6.71193 145.908 6.26732 145.21 5.95928C144.512 5.65125 143.759 5.48606 142.996 5.47349C139.705 5.47349 137.511 8.16979 137.511 11.3454V11.4243C137.476 12.1814 137.593 12.9378 137.856 13.6491C138.118 14.3604 138.52 15.0122 139.038 15.5664C139.557 16.1206 140.18 16.566 140.874 16.8764C141.567 17.1868 142.315 17.3561 143.074 17.3741C143.829 17.3678 144.574 17.209 145.265 16.9071C145.956 16.6052 146.579 16.1666 147.095 15.6178C147.612 15.069 148.011 14.4214 148.27 13.7142C148.528 13.007 148.64 12.2548 148.599 11.5032L148.602 11.5042ZM157.885 1.10855e-05H168.149C171.479 1.10855e-05 173.754 0.872812 175.24 2.37974C175.891 3.0584 176.396 3.86193 176.726 4.74155C177.056 5.62117 177.204 6.55853 177.16 7.49671V7.5766C177.219 9.02593 176.819 10.457 176.017 11.6672C175.216 12.8773 174.053 13.8052 172.693 14.3193L177.865 22.0148H170.891L166.504 15.3509H163.918V22.0148H157.885V1.10855e-05ZM167.875 10.5515C169.913 10.5515 171.088 9.55988 171.088 7.93312V7.85323C171.088 6.10862 169.833 5.23682 167.835 5.23682H163.879V10.5116H167.875V10.5515ZM185.701 13.7641L177.434 1.10855e-05H184.291L188.756 8.013L193.26 1.10855e-05H199.996L191.73 13.6812V22.0108H185.697L185.701 13.7641ZM37.1364 8.60719H42.9741V14.5171H37.1364V8.60719ZM57.2731 4.60169H57.3132C58.1907 4.33742 59.0995 4.19067 60.0158 4.16529C60.889 4.26751 61.7239 4.58119 62.4477 5.07899C63.1716 5.57678 63.7625 6.24361 64.1689 7.02137C64.5476 6.64061 64.8466 6.18844 65.0483 5.69123C65.2501 5.19402 65.3506 4.66171 65.344 4.12535C65.3523 3.03996 64.9282 1.99571 64.165 1.22214C63.4018 0.448564 62.362 0.00898084 61.274 1.10855e-05H44.0342V7.49671L46.8159 6.54502V25.0296C46.8143 25.1694 46.8405 25.3081 46.8929 25.4377C46.9453 25.5673 47.0229 25.6853 47.1213 25.7848C47.2197 25.8844 47.3368 25.9635 47.466 26.0176C47.5952 26.0717 47.7338 26.0998 47.8739 26.1002H52.8888C53.0288 26.0996 53.1674 26.0715 53.2964 26.0173C53.4255 25.9631 53.5425 25.884 53.6408 25.7845C53.739 25.685 53.8166 25.567 53.869 25.4375C53.9213 25.3079 53.9475 25.1693 53.9459 25.0296V15.4288H55.2001C55.7077 16.3801 56.5261 17.1296 57.5196 17.5529C58.513 17.9761 59.6216 18.0476 60.6614 17.7556C61.7012 17.4635 62.6096 16.8255 63.2358 15.9473C63.862 15.0691 64.1683 14.0037 64.1038 12.928C64.0394 11.8522 63.608 10.8308 62.8814 10.0333C62.1549 9.23585 61.1767 8.71029 60.1095 8.5439C59.0422 8.37751 57.95 8.58031 57.0142 9.11861C56.0783 9.65692 55.3552 10.4984 54.9649 11.5032H53.9459V6.3453C54.9397 5.56547 56.0684 4.97414 57.2761 4.60069L57.2731 4.60169ZM59.3892 11.1068C59.8074 11.1008 60.2179 11.2192 60.5684 11.4467C60.919 11.6743 61.1937 12.0008 61.3576 12.3846C61.5216 12.7684 61.5673 13.1923 61.489 13.6021C61.4108 14.012 61.212 14.3894 60.918 14.6861C60.6241 14.9829 60.2483 15.1857 59.8384 15.2688C59.4285 15.3518 59.0032 15.3112 58.6165 15.1522C58.2298 14.9933 57.8993 14.7231 57.667 14.3762C57.4347 14.0292 57.3112 13.6211 57.3122 13.2039C57.3121 12.6513 57.5307 12.121 57.9204 11.7284C58.3101 11.3357 58.8394 11.1123 59.3932 11.1068H59.3892Z" fill="white"/>
</svg>
